STARTFONT 2.1
FONT -kiedtl-csq-Medium-R-Normal--16-120-96-96-P-100-FontSpecific-0
SIZE 7 96 96
FONTBOUNDINGBOX 7 7 0 -1
STARTPROPERTIES 14
CHARSET_REGISTRY "ISO10646"
CHARSET_ENCODING "1"
POINT_SIZE 120
PIXEL_SIZE 16
RESOLUTION_X 96
RESOLUTION_Y 96
FONT_ASCENT 6
FONT_DESCENT 1
AVERAGE_WIDTH 100
SLANT "r"
SPACING "C"
FOUNDRY "kiedtl"
FAMILY_NAME "csq"
_GBDFED_INFO "Edited with gbdfed 1.6."
ENDPROPERTIES
CHARS 256
STARTCHAR U+0000
ENCODING 0
SWIDTH 750 0
DWIDTH 7 0
BBX 7 7 0 -1
BITMAP
BC
80
84
04
80
DC
00
ENDCHAR
STARTCHAR U+0001
ENCODING 1
SWIDTH 750 0
DWIDTH 7 0
BBX 7 7 0 -1
BITMAP
BC
80
84
04
80
DC
00
ENDCHAR
STARTCHAR U+0002
ENCODING 2
SWIDTH 750 0
DWIDTH 7 0
BBX 7 7 0 -1
BITMAP
BC
80
84
04
80
DC
00
ENDCHAR
STARTCHAR U+0003
ENCODING 3
SWIDTH 750 0
DWIDTH 7 0
BBX 7 7 0 -1
BITMAP
BC
80
84
04
80
DC
00
ENDCHAR
STARTCHAR U+0004
ENCODING 4
SWIDTH 750 0
DWIDTH 7 0
BBX 7 7 0 -1
BITMAP
BC
80
84
04
80
DC
00
ENDCHAR
STARTCHAR U+0005
ENCODING 5
SWIDTH 750 0
DWIDTH 7 0
BBX 7 7 0 -1
BITMAP
BC
80
84
04
80
DC
00
ENDCHAR
STARTCHAR U+0006
ENCODING 6
SWIDTH 750 0
DWIDTH 7 0
BBX 7 7 0 -1
BITMAP
BC
80
84
04
80
DC
00
ENDCHAR
STARTCHAR U+0007
ENCODING 7
SWIDTH 750 0
DWIDTH 7 0
BBX 7 7 0 -1
BITMAP
BC
80
84
04
80
DC
00
ENDCHAR
STARTCHAR U+0008
ENCODING 8
SWIDTH 750 0
DWIDTH 7 0
BBX 7 7 0 -1
BITMAP
BC
80
84
04
80
DC
00
ENDCHAR
STARTCHAR U+0009
ENCODING 9
SWIDTH 750 0
DWIDTH 7 0
BBX 7 7 0 -1
BITMAP
BC
80
84
04
80
DC
00
ENDCHAR
STARTCHAR U+000A
ENCODING 10
SWIDTH 750 0
DWIDTH 7 0
BBX 7 7 0 -1
BITMAP
BC
80
84
04
80
DC
00
ENDCHAR
STARTCHAR U+000B
ENCODING 11
SWIDTH 750 0
DWIDTH 7 0
BBX 7 7 0 -1
BITMAP
BC
80
84
04
80
DC
00
ENDCHAR
STARTCHAR U+000C
ENCODING 12
SWIDTH 750 0
DWIDTH 7 0
BBX 7 7 0 -1
BITMAP
BC
80
84
04
80
DC
00
ENDCHAR
STARTCHAR U+000D
ENCODING 13
SWIDTH 750 0
DWIDTH 7 0
BBX 7 7 0 -1
BITMAP
BC
80
84
04
80
DC
00
ENDCHAR
STARTCHAR U+000E
ENCODING 14
SWIDTH 750 0
DWIDTH 7 0
BBX 7 7 0 -1
BITMAP
BC
80
84
04
80
DC
00
ENDCHAR
STARTCHAR U+000F
ENCODING 15
SWIDTH 750 0
DWIDTH 7 0
BBX 7 7 0 -1
BITMAP
BC
80
84
04
80
DC
00
ENDCHAR
STARTCHAR U+0010
ENCODING 16
SWIDTH 750 0
DWIDTH 7 0
BBX 7 7 0 -1
BITMAP
BC
80
84
04
80
DC
00
ENDCHAR
STARTCHAR U+0011
ENCODING 17
SWIDTH 750 0
DWIDTH 7 0
BBX 7 7 0 -1
BITMAP
BC
80
84
04
80
DC
00
ENDCHAR
STARTCHAR U+0012
ENCODING 18
SWIDTH 750 0
DWIDTH 7 0
BBX 7 7 0 -1
BITMAP
BC
80
84
04
80
DC
00
ENDCHAR
STARTCHAR U+0013
ENCODING 19
SWIDTH 750 0
DWIDTH 7 0
BBX 7 7 0 -1
BITMAP
BC
80
84
04
80
DC
00
ENDCHAR
STARTCHAR U+0014
ENCODING 20
SWIDTH 750 0
DWIDTH 7 0
BBX 7 7 0 -1
BITMAP
BC
80
84
04
80
DC
00
ENDCHAR
STARTCHAR U+0015
ENCODING 21
SWIDTH 750 0
DWIDTH 7 0
BBX 7 7 0 -1
BITMAP
BC
80
84
04
80
DC
00
ENDCHAR
STARTCHAR U+0016
ENCODING 22
SWIDTH 750 0
DWIDTH 7 0
BBX 7 7 0 -1
BITMAP
BC
80
84
04
80
DC
00
ENDCHAR
STARTCHAR U+0017
ENCODING 23
SWIDTH 750 0
DWIDTH 7 0
BBX 7 7 0 -1
BITMAP
BC
80
84
04
80
DC
00
ENDCHAR
STARTCHAR U+0018
ENCODING 24
SWIDTH 750 0
DWIDTH 7 0
BBX 7 7 0 -1
BITMAP
BC
80
84
04
80
DC
00
ENDCHAR
STARTCHAR U+0019
ENCODING 25
SWIDTH 750 0
DWIDTH 7 0
BBX 7 7 0 -1
BITMAP
BC
80
84
04
80
DC
00
ENDCHAR
STARTCHAR U+001A
ENCODING 26
SWIDTH 750 0
DWIDTH 7 0
BBX 7 7 0 -1
BITMAP
BC
80
84
04
80
DC
00
ENDCHAR
STARTCHAR U+001B
ENCODING 27
SWIDTH 750 0
DWIDTH 7 0
BBX 7 7 0 -1
BITMAP
BC
80
84
04
80
DC
00
ENDCHAR
STARTCHAR U+001C
ENCODING 28
SWIDTH 750 0
DWIDTH 7 0
BBX 7 7 0 -1
BITMAP
BC
80
84
04
80
DC
00
ENDCHAR
STARTCHAR U+001D
ENCODING 29
SWIDTH 750 0
DWIDTH 7 0
BBX 7 7 0 -1
BITMAP
BC
80
84
04
80
DC
00
ENDCHAR
STARTCHAR U+001E
ENCODING 30
SWIDTH 750 0
DWIDTH 7 0
BBX 7 7 0 -1
BITMAP
BC
80
84
04
80
DC
00
ENDCHAR
STARTCHAR U+001F
ENCODING 31
SWIDTH 750 0
DWIDTH 7 0
BBX 7 7 0 -1
BITMAP
BC
80
84
04
80
DC
00
ENDCHAR
STARTCHAR U+0020
ENCODING 32
SWIDTH 750 0
DWIDTH 7 0
BBX 7 7 0 -1
BITMAP
00
00
00
00
00
00
00
ENDCHAR
STARTCHAR U+0021
ENCODING 33
SWIDTH 750 0
DWIDTH 7 0
BBX 7 7 0 -1
BITMAP
30
30
30
30
00
30
00
ENDCHAR
STARTCHAR U+0022
ENCODING 34
SWIDTH 750 0
DWIDTH 7 0
BBX 7 7 0 -1
BITMAP
48
48
48
00
00
00
00
ENDCHAR
STARTCHAR U+0023
ENCODING 35
SWIDTH 750 0
DWIDTH 7 0
BBX 7 7 0 -1
BITMAP
68
FC
68
68
FC
68
00
ENDCHAR
STARTCHAR U+0024
ENCODING 36
SWIDTH 750 0
DWIDTH 7 0
BBX 7 7 0 -1
BITMAP
10
FC
D0
FC
14
FC
10
ENDCHAR
STARTCHAR U+0025
ENCODING 37
SWIDTH 750 0
DWIDTH 7 0
BBX 7 7 0 -1
BITMAP
C4
C8
10
20
4C
8C
00
ENDCHAR
STARTCHAR U+0026
ENCODING 38
SWIDTH 750 0
DWIDTH 7 0
BBX 7 7 0 -1
BITMAP
78
C0
C8
FC
C8
7C
00
ENDCHAR
STARTCHAR U+0027
ENCODING 39
SWIDTH 750 0
DWIDTH 7 0
BBX 7 7 0 -1
BITMAP
10
10
10
00
00
00
00
ENDCHAR
STARTCHAR U+0028
ENCODING 40
SWIDTH 750 0
DWIDTH 7 0
BBX 7 7 0 -1
BITMAP
3C
60
60
60
60
60
3C
ENDCHAR
STARTCHAR U+0029
ENCODING 41
SWIDTH 750 0
DWIDTH 7 0
BBX 7 7 0 -1
BITMAP
F0
18
18
18
18
18
F0
ENDCHAR
STARTCHAR U+002A
ENCODING 42
SWIDTH 750 0
DWIDTH 7 0
BBX 7 7 0 -1
BITMAP
A8
70
70
A8
00
00
00
ENDCHAR
STARTCHAR U+002B
ENCODING 43
SWIDTH 750 0
DWIDTH 7 0
BBX 7 7 0 -1
BITMAP
00
20
20
F8
20
20
00
ENDCHAR
STARTCHAR U+002C
ENCODING 44
SWIDTH 750 0
DWIDTH 7 0
BBX 7 7 0 -1
BITMAP
00
00
00
00
18
18
30
ENDCHAR
STARTCHAR U+002D
ENCODING 45
SWIDTH 750 0
DWIDTH 7 0
BBX 7 7 0 -1
BITMAP
00
00
00
FE
00
00
00
ENDCHAR
STARTCHAR U+002E
ENCODING 46
SWIDTH 750 0
DWIDTH 7 0
BBX 7 7 0 -1
BITMAP
00
00
00
00
30
30
00
ENDCHAR
STARTCHAR U+002F
ENCODING 47
SWIDTH 750 0
DWIDTH 7 0
BBX 7 7 0 -1
BITMAP
04
08
10
20
40
80
00
ENDCHAR
STARTCHAR U+0030
ENCODING 48
SWIDTH 750 0
DWIDTH 7 0
BBX 7 7 0 -1
BITMAP
78
CC
D4
D4
E4
78
00
ENDCHAR
STARTCHAR U+0031
ENCODING 49
SWIDTH 750 0
DWIDTH 7 0
BBX 7 7 0 -1
BITMAP
78
18
18
18
18
18
00
ENDCHAR
STARTCHAR U+0032
ENCODING 50
SWIDTH 750 0
DWIDTH 7 0
BBX 7 7 0 -1
BITMAP
78
8C
0C
30
C0
FC
00
ENDCHAR
STARTCHAR U+0033
ENCODING 51
SWIDTH 750 0
DWIDTH 7 0
BBX 7 7 0 -1
BITMAP
FC
18
38
0C
8C
78
00
ENDCHAR
STARTCHAR U+0034
ENCODING 52
SWIDTH 750 0
DWIDTH 7 0
BBX 7 7 0 -1
BITMAP
38
58
98
FC
18
18
00
ENDCHAR
STARTCHAR U+0035
ENCODING 53
SWIDTH 750 0
DWIDTH 7 0
BBX 7 7 0 -1
BITMAP
FC
C0
F8
04
C4
78
00
ENDCHAR
STARTCHAR U+0036
ENCODING 54
SWIDTH 750 0
DWIDTH 7 0
BBX 7 7 0 -1
BITMAP
38
40
F8
C4
C4
78
00
ENDCHAR
STARTCHAR U+0037
ENCODING 55
SWIDTH 750 0
DWIDTH 7 0
BBX 7 7 0 -1
BITMAP
FC
04
18
30
30
30
00
ENDCHAR
STARTCHAR U+0038
ENCODING 56
SWIDTH 750 0
DWIDTH 7 0
BBX 7 7 0 -1
BITMAP
78
C4
78
C4
C4
78
00
ENDCHAR
STARTCHAR U+0039
ENCODING 57
SWIDTH 750 0
DWIDTH 7 0
BBX 7 7 0 -1
BITMAP
78
C4
C4
7C
0C
70
00
ENDCHAR
STARTCHAR U+003A
ENCODING 58
SWIDTH 750 0
DWIDTH 7 0
BBX 7 7 0 -1
BITMAP
00
30
30
00
30
30
00
ENDCHAR
STARTCHAR U+003B
ENCODING 59
SWIDTH 750 0
DWIDTH 7 0
BBX 7 7 0 -1
BITMAP
00
18
18
00
18
18
30
ENDCHAR
STARTCHAR U+003C
ENCODING 60
SWIDTH 750 0
DWIDTH 7 0
BBX 7 7 0 -1
BITMAP
00
18
30
60
30
18
00
ENDCHAR
STARTCHAR U+003D
ENCODING 61
SWIDTH 750 0
DWIDTH 7 0
BBX 7 7 0 -1
BITMAP
00
00
FC
00
FC
00
00
ENDCHAR
STARTCHAR U+003E
ENCODING 62
SWIDTH 750 0
DWIDTH 7 0
BBX 7 7 0 -1
BITMAP
00
60
30
18
30
60
00
ENDCHAR
STARTCHAR U+003F
ENCODING 63
SWIDTH 750 0
DWIDTH 7 0
BBX 7 7 0 -1
BITMAP
78
C4
04
18
30
30
00
ENDCHAR
STARTCHAR U+0040
ENCODING 64
SWIDTH 750 0
DWIDTH 7 0
BBX 7 7 0 -1
BITMAP
78
84
BC
BC
80
78
00
ENDCHAR
STARTCHAR U+0041
ENCODING 65
SWIDTH 750 0
DWIDTH 7 0
BBX 7 7 0 -1
BITMAP
78
C4
C4
FC
C4
C4
00
ENDCHAR
STARTCHAR U+0042
ENCODING 66
SWIDTH 750 0
DWIDTH 7 0
BBX 7 7 0 -1
BITMAP
F8
C4
C4
F8
C4
F8
00
ENDCHAR
STARTCHAR U+0043
ENCODING 67
SWIDTH 750 0
DWIDTH 7 0
BBX 7 7 0 -1
BITMAP
78
C4
C0
C0
C4
78
00
ENDCHAR
STARTCHAR U+0044
ENCODING 68
SWIDTH 750 0
DWIDTH 7 0
BBX 7 7 0 -1
BITMAP
F8
C4
C4
C4
C4
F8
00
ENDCHAR
STARTCHAR U+0045
ENCODING 69
SWIDTH 750 0
DWIDTH 7 0
BBX 7 7 0 -1
BITMAP
78
C4
C0
FC
C0
78
00
ENDCHAR
STARTCHAR U+0046
ENCODING 70
SWIDTH 750 0
DWIDTH 7 0
BBX 7 7 0 -1
BITMAP
7C
C0
C0
F8
C0
C0
00
ENDCHAR
STARTCHAR U+0047
ENCODING 71
SWIDTH 750 0
DWIDTH 7 0
BBX 7 7 0 -1
BITMAP
78
C4
C0
DC
C4
78
00
ENDCHAR
STARTCHAR U+0048
ENCODING 72
SWIDTH 750 0
DWIDTH 7 0
BBX 7 7 0 -1
BITMAP
C4
C4
C4
FC
C4
C4
00
ENDCHAR
STARTCHAR U+0049
ENCODING 73
SWIDTH 750 0
DWIDTH 7 0
BBX 7 7 0 -1
BITMAP
FC
30
30
30
30
FC
00
ENDCHAR
STARTCHAR U+004A
ENCODING 74
SWIDTH 750 0
DWIDTH 7 0
BBX 7 7 0 -1
BITMAP
3C
0C
0C
0C
8C
78
00
ENDCHAR
STARTCHAR U+004B
ENCODING 75
SWIDTH 750 0
DWIDTH 7 0
BBX 7 7 0 -1
BITMAP
C4
C8
F0
C8
C4
C4
00
ENDCHAR
STARTCHAR U+004C
ENCODING 76
SWIDTH 750 0
DWIDTH 7 0
BBX 7 7 0 -1
BITMAP
C0
C0
C0
C0
C0
FC
00
ENDCHAR
STARTCHAR U+004D
ENCODING 77
SWIDTH 750 0
DWIDTH 7 0
BBX 7 7 0 -1
BITMAP
78
D4
D4
D4
D4
C4
00
ENDCHAR
STARTCHAR U+004E
ENCODING 78
SWIDTH 750 0
DWIDTH 7 0
BBX 7 7 0 -1
BITMAP
F8
C4
C4
C4
C4
C4
00
ENDCHAR
STARTCHAR U+004F
ENCODING 79
SWIDTH 750 0
DWIDTH 7 0
BBX 7 7 0 -1
BITMAP
78
C4
C4
C4
C4
78
00
ENDCHAR
STARTCHAR U+0050
ENCODING 80
SWIDTH 750 0
DWIDTH 7 0
BBX 7 7 0 -1
BITMAP
F8
C4
C4
F8
C0
C0
00
ENDCHAR
STARTCHAR U+0051
ENCODING 81
SWIDTH 750 0
DWIDTH 7 0
BBX 7 7 0 -1
BITMAP
78
C4
C4
D4
C8
74
00
ENDCHAR
STARTCHAR U+0052
ENCODING 82
SWIDTH 750 0
DWIDTH 7 0
BBX 7 7 0 -1
BITMAP
F8
C4
C4
F8
C4
C4
00
ENDCHAR
STARTCHAR U+0053
ENCODING 83
SWIDTH 750 0
DWIDTH 7 0
BBX 7 7 0 -1
BITMAP
78
C4
78
04
C4
78
00
ENDCHAR
STARTCHAR U+0054
ENCODING 84
SWIDTH 750 0
DWIDTH 7 0
BBX 7 7 0 -1
BITMAP
FC
30
30
30
30
30
00
ENDCHAR
STARTCHAR U+0055
ENCODING 85
SWIDTH 750 0
DWIDTH 7 0
BBX 7 7 0 -1
BITMAP
C4
C4
C4
C4
C4
78
00
ENDCHAR
STARTCHAR U+0056
ENCODING 86
SWIDTH 750 0
DWIDTH 7 0
BBX 7 7 0 -1
BITMAP
C4
C4
C4
C4
C8
F0
00
ENDCHAR
STARTCHAR U+0057
ENCODING 87
SWIDTH 750 0
DWIDTH 7 0
BBX 7 7 0 -1
BITMAP
C4
D4
D4
D4
D4
78
00
ENDCHAR
STARTCHAR U+0058
ENCODING 88
SWIDTH 750 0
DWIDTH 7 0
BBX 7 7 0 -1
BITMAP
C4
C4
C4
78
C4
C4
00
ENDCHAR
STARTCHAR U+0059
ENCODING 89
SWIDTH 750 0
DWIDTH 7 0
BBX 7 7 0 -1
BITMAP
C4
C4
C4
78
10
10
00
ENDCHAR
STARTCHAR U+005A
ENCODING 90
SWIDTH 750 0
DWIDTH 7 0
BBX 7 7 0 -1
BITMAP
FC
08
10
20
40
FC
00
ENDCHAR
STARTCHAR U+005B
ENCODING 91
SWIDTH 750 0
DWIDTH 7 0
BBX 7 7 0 -1
BITMAP
7C
60
60
60
60
60
7C
ENDCHAR
STARTCHAR U+005C
ENCODING 92
SWIDTH 750 0
DWIDTH 7 0
BBX 7 7 0 -1
BITMAP
80
40
20
10
08
04
00
ENDCHAR
STARTCHAR U+005D
ENCODING 93
SWIDTH 750 0
DWIDTH 7 0
BBX 7 7 0 -1
BITMAP
F8
18
18
18
18
18
F8
ENDCHAR
STARTCHAR U+005E
ENCODING 94
SWIDTH 750 0
DWIDTH 7 0
BBX 7 7 0 -1
BITMAP
10
28
44
00
00
00
00
ENDCHAR
STARTCHAR U+005F
ENCODING 95
SWIDTH 750 0
DWIDTH 7 0
BBX 7 7 0 -1
BITMAP
00
00
00
00
00
FC
00
ENDCHAR
STARTCHAR U+0060
ENCODING 96
SWIDTH 750 0
DWIDTH 7 0
BBX 7 7 0 -1
BITMAP
40
20
10
00
00
00
00
ENDCHAR
STARTCHAR U+0061
ENCODING 97
SWIDTH 750 0
DWIDTH 7 0
BBX 7 7 0 -1
BITMAP
00
78
C4
C4
CC
74
00
ENDCHAR
STARTCHAR U+0062
ENCODING 98
SWIDTH 750 0
DWIDTH 7 0
BBX 7 7 0 -1
BITMAP
C0
F8
C4
C4
C4
F8
00
ENDCHAR
STARTCHAR U+0063
ENCODING 99
SWIDTH 750 0
DWIDTH 7 0
BBX 7 7 0 -1
BITMAP
00
78
C4
C0
C4
78
00
ENDCHAR
STARTCHAR U+0064
ENCODING 100
SWIDTH 750 0
DWIDTH 7 0
BBX 7 7 0 -1
BITMAP
0C
7C
8C
8C
8C
7C
00
ENDCHAR
STARTCHAR U+0065
ENCODING 101
SWIDTH 750 0
DWIDTH 7 0
BBX 7 7 0 -1
BITMAP
00
78
C4
FC
C0
78
00
ENDCHAR
STARTCHAR U+0066
ENCODING 102
SWIDTH 750 0
DWIDTH 7 0
BBX 7 7 0 -1
BITMAP
78
C4
C4
F0
C0
C0
00
ENDCHAR
STARTCHAR U+0067
ENCODING 103
SWIDTH 750 0
DWIDTH 7 0
BBX 7 7 0 -1
BITMAP
00
7C
C4
C4
7C
04
78
ENDCHAR
STARTCHAR U+0068
ENCODING 104
SWIDTH 750 0
DWIDTH 7 0
BBX 7 7 0 -1
BITMAP
C0
F8
C4
C4
C4
C4
00
ENDCHAR
STARTCHAR U+0069
ENCODING 105
SWIDTH 750 0
DWIDTH 7 0
BBX 7 7 0 -1
BITMAP
60
00
60
60
60
38
00
ENDCHAR
STARTCHAR U+006A
ENCODING 106
SWIDTH 750 0
DWIDTH 7 0
BBX 7 7 0 -1
BITMAP
0C
00
0C
0C
0C
8C
78
ENDCHAR
STARTCHAR U+006B
ENCODING 107
SWIDTH 750 0
DWIDTH 7 0
BBX 7 7 0 -1
BITMAP
C0
C4
C4
F8
C4
C4
00
ENDCHAR
STARTCHAR U+006C
ENCODING 108
SWIDTH 750 0
DWIDTH 7 0
BBX 7 7 0 -1
BITMAP
E0
60
60
60
60
3C
00
ENDCHAR
STARTCHAR U+006D
ENCODING 109
SWIDTH 750 0
DWIDTH 7 0
BBX 7 7 0 -1
BITMAP
00
78
D4
D4
D4
C4
00
ENDCHAR
STARTCHAR U+006E
ENCODING 110
SWIDTH 750 0
DWIDTH 7 0
BBX 7 7 0 -1
BITMAP
00
78
C4
C4
C4
C4
00
ENDCHAR
STARTCHAR U+006F
ENCODING 111
SWIDTH 750 0
DWIDTH 7 0
BBX 7 7 0 -1
BITMAP
00
78
C4
C4
C4
78
00
ENDCHAR
STARTCHAR U+0070
ENCODING 112
SWIDTH 750 0
DWIDTH 7 0
BBX 7 7 0 -1
BITMAP
00
78
C4
C4
F8
C0
C0
ENDCHAR
STARTCHAR U+0070
ENCODING 113
SWIDTH 750 0
DWIDTH 7 0
BBX 7 7 0 -1
BITMAP
00
78
8C
8C
7C
0C
0C
ENDCHAR
STARTCHAR U+0072
ENCODING 114
SWIDTH 750 0
DWIDTH 7 0
BBX 7 7 0 -1
BITMAP
00
7C
C0
C0
C0
C0
00
ENDCHAR
STARTCHAR U+0073
ENCODING 115
SWIDTH 750 0
DWIDTH 7 0
BBX 7 7 0 -1
BITMAP
00
7C
E0
78
04
78
00
ENDCHAR
STARTCHAR U+0074
ENCODING 116
SWIDTH 750 0
DWIDTH 7 0
BBX 7 7 0 -1
BITMAP
60
FC
60
60
64
38
00
ENDCHAR
STARTCHAR U+0075
ENCODING 117
SWIDTH 750 0
DWIDTH 7 0
BBX 7 7 0 -1
BITMAP
00
C4
C4
C4
C4
78
00
ENDCHAR
STARTCHAR U+0076
ENCODING 118
SWIDTH 750 0
DWIDTH 7 0
BBX 7 7 0 -1
BITMAP
00
C4
C4
C4
C8
F0
00
ENDCHAR
STARTCHAR U+0077
ENCODING 119
SWIDTH 750 0
DWIDTH 7 0
BBX 7 7 0 -1
BITMAP
00
C4
D4
D4
D4
78
00
ENDCHAR
STARTCHAR U+0078
ENCODING 120
SWIDTH 750 0
DWIDTH 7 0
BBX 7 7 0 -1
BITMAP
00
C4
C4
78
C4
C4
00
ENDCHAR
STARTCHAR U+0079
ENCODING 121
SWIDTH 750 0
DWIDTH 7 0
BBX 7 7 0 -1
BITMAP
00
C4
C4
C4
7C
04
78
ENDCHAR
STARTCHAR U+007A
ENCODING 122
SWIDTH 750 0
DWIDTH 7 0
BBX 7 7 0 -1
BITMAP
00
FC
08
30
40
FC
00
ENDCHAR
STARTCHAR U+007B
ENCODING 123
SWIDTH 750 0
DWIDTH 7 0
BBX 7 7 0 -1
BITMAP
1C
30
30
F0
30
30
1C
ENDCHAR
STARTCHAR U+007C
ENCODING 124
SWIDTH 750 0
DWIDTH 7 0
BBX 7 7 0 -1
BITMAP
30
30
30
30
30
30
30
ENDCHAR
STARTCHAR U+007D
ENCODING 125
SWIDTH 750 0
DWIDTH 7 0
BBX 7 7 0 -1
BITMAP
E0
30
30
3C
30
30
E0
ENDCHAR
STARTCHAR U+007E
ENCODING 126
SWIDTH 750 0
DWIDTH 7 0
BBX 7 7 0 -1
BITMAP
00
00
76
DC
00
00
00
ENDCHAR
STARTCHAR U+007F
ENCODING 127
SWIDTH 750 0
DWIDTH 7 0
BBX 7 7 0 -1
BITMAP
FE
FE
FE
FE
FE
FE
FE
ENDCHAR
STARTCHAR U+0080
ENCODING 128
SWIDTH 750 0
DWIDTH 7 0
BBX 7 7 0 -1
BITMAP
BC
80
84
04
80
DC
00
ENDCHAR
STARTCHAR U+0081
ENCODING 129
SWIDTH 750 0
DWIDTH 7 0
BBX 7 7 0 -1
BITMAP
BC
80
84
04
80
DC
00
ENDCHAR
STARTCHAR U+0082
ENCODING 130
SWIDTH 750 0
DWIDTH 7 0
BBX 7 7 0 -1
BITMAP
BC
80
84
04
80
DC
00
ENDCHAR
STARTCHAR U+0083
ENCODING 131
SWIDTH 750 0
DWIDTH 7 0
BBX 7 7 0 -1
BITMAP
BC
80
84
04
80
DC
00
ENDCHAR
STARTCHAR U+0084
ENCODING 132
SWIDTH 750 0
DWIDTH 7 0
BBX 7 7 0 -1
BITMAP
BC
80
84
04
80
DC
00
ENDCHAR
STARTCHAR U+0085
ENCODING 133
SWIDTH 750 0
DWIDTH 7 0
BBX 7 7 0 -1
BITMAP
BC
80
84
04
80
DC
00
ENDCHAR
STARTCHAR U+0086
ENCODING 134
SWIDTH 750 0
DWIDTH 7 0
BBX 7 7 0 -1
BITMAP
BC
80
84
04
80
DC
00
ENDCHAR
STARTCHAR U+0087
ENCODING 135
SWIDTH 750 0
DWIDTH 7 0
BBX 7 7 0 -1
BITMAP
BC
80
84
04
80
DC
00
ENDCHAR
STARTCHAR U+0088
ENCODING 136
SWIDTH 750 0
DWIDTH 7 0
BBX 7 7 0 -1
BITMAP
BC
80
84
04
80
DC
00
ENDCHAR
STARTCHAR U+0089
ENCODING 137
SWIDTH 750 0
DWIDTH 7 0
BBX 7 7 0 -1
BITMAP
BC
80
84
04
80
DC
00
ENDCHAR
STARTCHAR U+008A
ENCODING 138
SWIDTH 750 0
DWIDTH 7 0
BBX 7 7 0 -1
BITMAP
BC
80
84
04
80
DC
00
ENDCHAR
STARTCHAR U+008B
ENCODING 139
SWIDTH 750 0
DWIDTH 7 0
BBX 7 7 0 -1
BITMAP
BC
80
84
04
80
DC
00
ENDCHAR
STARTCHAR U+008C
ENCODING 140
SWIDTH 750 0
DWIDTH 7 0
BBX 7 7 0 -1
BITMAP
BC
80
84
04
80
DC
00
ENDCHAR
STARTCHAR U+008D
ENCODING 141
SWIDTH 750 0
DWIDTH 7 0
BBX 7 7 0 -1
BITMAP
BC
80
84
04
80
DC
00
ENDCHAR
STARTCHAR U+008E
ENCODING 142
SWIDTH 750 0
DWIDTH 7 0
BBX 7 7 0 -1
BITMAP
BC
80
84
04
80
DC
00
ENDCHAR
STARTCHAR U+008F
ENCODING 143
SWIDTH 750 0
DWIDTH 7 0
BBX 7 7 0 -1
BITMAP
BC
80
84
04
80
DC
00
ENDCHAR
STARTCHAR U+0090
ENCODING 144
SWIDTH 750 0
DWIDTH 7 0
BBX 7 7 0 -1
BITMAP
BC
80
84
04
80
DC
00
ENDCHAR
STARTCHAR U+0091
ENCODING 145
SWIDTH 750 0
DWIDTH 7 0
BBX 7 7 0 -1
BITMAP
BC
80
84
04
80
DC
00
ENDCHAR
STARTCHAR U+0092
ENCODING 146
SWIDTH 750 0
DWIDTH 7 0
BBX 7 7 0 -1
BITMAP
BC
80
84
04
80
DC
00
ENDCHAR
STARTCHAR U+0093
ENCODING 147
SWIDTH 750 0
DWIDTH 7 0
BBX 7 7 0 -1
BITMAP
BC
80
84
04
80
DC
00
ENDCHAR
STARTCHAR U+0094
ENCODING 148
SWIDTH 750 0
DWIDTH 7 0
BBX 7 7 0 -1
BITMAP
BC
80
84
04
80
DC
00
ENDCHAR
STARTCHAR U+0095
ENCODING 149
SWIDTH 750 0
DWIDTH 7 0
BBX 7 7 0 -1
BITMAP
BC
80
84
04
80
DC
00
ENDCHAR
STARTCHAR U+0096
ENCODING 150
SWIDTH 750 0
DWIDTH 7 0
BBX 7 7 0 -1
BITMAP
BC
80
84
04
80
DC
00
ENDCHAR
STARTCHAR U+0097
ENCODING 151
SWIDTH 750 0
DWIDTH 7 0
BBX 7 7 0 -1
BITMAP
BC
80
84
04
80
DC
00
ENDCHAR
STARTCHAR U+0098
ENCODING 152
SWIDTH 750 0
DWIDTH 7 0
BBX 7 7 0 -1
BITMAP
BC
80
84
04
80
DC
00
ENDCHAR
STARTCHAR U+0099
ENCODING 153
SWIDTH 750 0
DWIDTH 7 0
BBX 7 7 0 -1
BITMAP
BC
80
84
04
80
DC
00
ENDCHAR
STARTCHAR U+009A
ENCODING 154
SWIDTH 750 0
DWIDTH 7 0
BBX 7 7 0 -1
BITMAP
BC
80
84
04
80
DC
00
ENDCHAR
STARTCHAR U+009B
ENCODING 155
SWIDTH 750 0
DWIDTH 7 0
BBX 7 7 0 -1
BITMAP
BC
80
84
04
80
DC
00
ENDCHAR
STARTCHAR U+009C
ENCODING 156
SWIDTH 750 0
DWIDTH 7 0
BBX 7 7 0 -1
BITMAP
BC
80
84
04
80
DC
00
ENDCHAR
STARTCHAR U+009D
ENCODING 157
SWIDTH 750 0
DWIDTH 7 0
BBX 7 7 0 -1
BITMAP
BC
80
84
04
80
DC
00
ENDCHAR
STARTCHAR U+009E
ENCODING 158
SWIDTH 750 0
DWIDTH 7 0
BBX 7 7 0 -1
BITMAP
BC
80
84
04
80
DC
00
ENDCHAR
STARTCHAR U+009F
ENCODING 159
SWIDTH 750 0
DWIDTH 7 0
BBX 7 7 0 -1
BITMAP
BC
80
84
04
80
DC
00
ENDCHAR
STARTCHAR U+00A0
ENCODING 160
SWIDTH 750 0
DWIDTH 7 0
BBX 7 7 0 -1
BITMAP
BC
80
84
04
80
DC
00
ENDCHAR
STARTCHAR U+00A1
ENCODING 161
SWIDTH 750 0
DWIDTH 7 0
BBX 7 7 0 -1
BITMAP
BC
80
84
04
80
DC
00
ENDCHAR
STARTCHAR U+00A2
ENCODING 162
SWIDTH 750 0
DWIDTH 7 0
BBX 7 7 0 -1
BITMAP
BC
80
84
04
80
DC
00
ENDCHAR
STARTCHAR U+00A3
ENCODING 163
SWIDTH 750 0
DWIDTH 7 0
BBX 7 7 0 -1
BITMAP
BC
80
84
04
80
DC
00
ENDCHAR
STARTCHAR U+00A4
ENCODING 164
SWIDTH 750 0
DWIDTH 7 0
BBX 7 7 0 -1
BITMAP
BC
80
84
04
80
DC
00
ENDCHAR
STARTCHAR U+00A5
ENCODING 165
SWIDTH 750 0
DWIDTH 7 0
BBX 7 7 0 -1
BITMAP
BC
80
84
04
80
DC
00
ENDCHAR
STARTCHAR U+00A6
ENCODING 166
SWIDTH 750 0
DWIDTH 7 0
BBX 7 7 0 -1
BITMAP
BC
80
84
04
80
DC
00
ENDCHAR
STARTCHAR U+00A7
ENCODING 167
SWIDTH 750 0
DWIDTH 7 0
BBX 7 7 0 -1
BITMAP
BC
80
84
04
80
DC
00
ENDCHAR
STARTCHAR U+00A8
ENCODING 168
SWIDTH 750 0
DWIDTH 7 0
BBX 7 7 0 -1
BITMAP
BC
80
84
04
80
DC
00
ENDCHAR
STARTCHAR U+00A9
ENCODING 169
SWIDTH 750 0
DWIDTH 7 0
BBX 7 7 0 -1
BITMAP
BC
80
84
04
80
DC
00
ENDCHAR
STARTCHAR U+00AA
ENCODING 170
SWIDTH 750 0
DWIDTH 7 0
BBX 7 7 0 -1
BITMAP
BC
80
84
04
80
DC
00
ENDCHAR
STARTCHAR U+00AB
ENCODING 171
SWIDTH 750 0
DWIDTH 7 0
BBX 7 7 0 -1
BITMAP
BC
80
84
04
80
DC
00
ENDCHAR
STARTCHAR U+00AC
ENCODING 172
SWIDTH 750 0
DWIDTH 7 0
BBX 7 7 0 -1
BITMAP
BC
80
84
04
80
DC
00
ENDCHAR
STARTCHAR U+00AD
ENCODING 173
SWIDTH 750 0
DWIDTH 7 0
BBX 7 7 0 -1
BITMAP
BC
80
84
04
80
DC
00
ENDCHAR
STARTCHAR U+00AE
ENCODING 174
SWIDTH 750 0
DWIDTH 7 0
BBX 7 7 0 -1
BITMAP
BC
80
84
04
80
DC
00
ENDCHAR
STARTCHAR U+00AF
ENCODING 175
SWIDTH 750 0
DWIDTH 7 0
BBX 7 7 0 -1
BITMAP
BC
80
84
04
80
DC
00
ENDCHAR
STARTCHAR U+00B0
ENCODING 176
SWIDTH 750 0
DWIDTH 7 0
BBX 7 7 0 -1
BITMAP
BC
80
84
04
80
DC
00
ENDCHAR
STARTCHAR U+00B1
ENCODING 177
SWIDTH 750 0
DWIDTH 7 0
BBX 7 7 0 -1
BITMAP
BC
80
84
04
80
DC
00
ENDCHAR
STARTCHAR U+00B2
ENCODING 178
SWIDTH 750 0
DWIDTH 7 0
BBX 7 7 0 -1
BITMAP
BC
80
84
04
80
DC
00
ENDCHAR
STARTCHAR U+00B3
ENCODING 179
SWIDTH 750 0
DWIDTH 7 0
BBX 7 7 0 -1
BITMAP
BC
80
84
04
80
DC
00
ENDCHAR
STARTCHAR U+00B4
ENCODING 180
SWIDTH 750 0
DWIDTH 7 0
BBX 7 7 0 -1
BITMAP
BC
80
84
04
80
DC
00
ENDCHAR
STARTCHAR U+00B5
ENCODING 181
SWIDTH 750 0
DWIDTH 7 0
BBX 7 7 0 -1
BITMAP
BC
80
84
04
80
DC
00
ENDCHAR
STARTCHAR U+00B6
ENCODING 182
SWIDTH 750 0
DWIDTH 7 0
BBX 7 7 0 -1
BITMAP
BC
80
84
04
80
DC
00
ENDCHAR
STARTCHAR U+00B7
ENCODING 183
SWIDTH 750 0
DWIDTH 7 0
BBX 7 7 0 -1
BITMAP
BC
80
84
04
80
DC
00
ENDCHAR
STARTCHAR U+00B8
ENCODING 184
SWIDTH 750 0
DWIDTH 7 0
BBX 7 7 0 -1
BITMAP
BC
80
84
04
80
DC
00
ENDCHAR
STARTCHAR U+00B9
ENCODING 185
SWIDTH 750 0
DWIDTH 7 0
BBX 7 7 0 -1
BITMAP
BC
80
84
04
80
DC
00
ENDCHAR
STARTCHAR U+00BA
ENCODING 186
SWIDTH 750 0
DWIDTH 7 0
BBX 7 7 0 -1
BITMAP
BC
80
84
04
80
DC
00
ENDCHAR
STARTCHAR U+00BB
ENCODING 187
SWIDTH 750 0
DWIDTH 7 0
BBX 7 7 0 -1
BITMAP
BC
80
84
04
80
DC
00
ENDCHAR
STARTCHAR U+00BC
ENCODING 188
SWIDTH 750 0
DWIDTH 7 0
BBX 7 7 0 -1
BITMAP
BC
80
84
04
80
DC
00
ENDCHAR
STARTCHAR U+00BD
ENCODING 189
SWIDTH 750 0
DWIDTH 7 0
BBX 7 7 0 -1
BITMAP
BC
80
84
04
80
DC
00
ENDCHAR
STARTCHAR U+00BE
ENCODING 190
SWIDTH 750 0
DWIDTH 7 0
BBX 7 7 0 -1
BITMAP
BC
80
84
04
80
DC
00
ENDCHAR
STARTCHAR U+00BF
ENCODING 191
SWIDTH 750 0
DWIDTH 7 0
BBX 7 7 0 -1
BITMAP
BC
80
84
04
80
DC
00
ENDCHAR
STARTCHAR U+00C0
ENCODING 192
SWIDTH 750 0
DWIDTH 7 0
BBX 7 7 0 -1
BITMAP
BC
80
84
04
80
DC
00
ENDCHAR
STARTCHAR U+00C1
ENCODING 193
SWIDTH 750 0
DWIDTH 7 0
BBX 7 7 0 -1
BITMAP
BC
80
84
04
80
DC
00
ENDCHAR
STARTCHAR U+00C2
ENCODING 194
SWIDTH 750 0
DWIDTH 7 0
BBX 7 7 0 -1
BITMAP
BC
80
84
04
80
DC
00
ENDCHAR
STARTCHAR U+00C3
ENCODING 195
SWIDTH 750 0
DWIDTH 7 0
BBX 7 7 0 -1
BITMAP
BC
80
84
04
80
DC
00
ENDCHAR
STARTCHAR U+00C4
ENCODING 196
SWIDTH 750 0
DWIDTH 7 0
BBX 7 7 0 -1
BITMAP
BC
80
84
04
80
DC
00
ENDCHAR
STARTCHAR U+00C5
ENCODING 197
SWIDTH 750 0
DWIDTH 7 0
BBX 7 7 0 -1
BITMAP
BC
80
84
04
80
DC
00
ENDCHAR
STARTCHAR U+00C6
ENCODING 198
SWIDTH 750 0
DWIDTH 7 0
BBX 7 7 0 -1
BITMAP
BC
80
84
04
80
DC
00
ENDCHAR
STARTCHAR U+00C7
ENCODING 199
SWIDTH 750 0
DWIDTH 7 0
BBX 7 7 0 -1
BITMAP
BC
80
84
04
80
DC
00
ENDCHAR
STARTCHAR U+00C8
ENCODING 200
SWIDTH 750 0
DWIDTH 7 0
BBX 7 7 0 -1
BITMAP
BC
80
84
04
80
DC
00
ENDCHAR
STARTCHAR U+00C9
ENCODING 201
SWIDTH 750 0
DWIDTH 7 0
BBX 7 7 0 -1
BITMAP
BC
80
84
04
80
DC
00
ENDCHAR
STARTCHAR U+00CA
ENCODING 202
SWIDTH 750 0
DWIDTH 7 0
BBX 7 7 0 -1
BITMAP
BC
80
84
04
80
DC
00
ENDCHAR
STARTCHAR U+00CB
ENCODING 203
SWIDTH 750 0
DWIDTH 7 0
BBX 7 7 0 -1
BITMAP
BC
80
84
04
80
DC
00
ENDCHAR
STARTCHAR U+00CC
ENCODING 204
SWIDTH 750 0
DWIDTH 7 0
BBX 7 7 0 -1
BITMAP
BC
80
84
04
80
DC
00
ENDCHAR
STARTCHAR U+00CD
ENCODING 205
SWIDTH 750 0
DWIDTH 7 0
BBX 7 7 0 -1
BITMAP
BC
80
84
04
80
DC
00
ENDCHAR
STARTCHAR U+00CE
ENCODING 206
SWIDTH 750 0
DWIDTH 7 0
BBX 7 7 0 -1
BITMAP
BC
80
84
04
80
DC
00
ENDCHAR
STARTCHAR U+00CF
ENCODING 207
SWIDTH 750 0
DWIDTH 7 0
BBX 7 7 0 -1
BITMAP
BC
80
84
04
80
DC
00
ENDCHAR
STARTCHAR U+00D0
ENCODING 208
SWIDTH 750 0
DWIDTH 7 0
BBX 7 7 0 -1
BITMAP
BC
80
84
04
80
DC
00
ENDCHAR
STARTCHAR U+00D1
ENCODING 209
SWIDTH 750 0
DWIDTH 7 0
BBX 7 7 0 -1
BITMAP
BC
80
84
04
80
DC
00
ENDCHAR
STARTCHAR U+00D2
ENCODING 210
SWIDTH 750 0
DWIDTH 7 0
BBX 7 7 0 -1
BITMAP
BC
80
84
04
80
DC
00
ENDCHAR
STARTCHAR U+00D3
ENCODING 211
SWIDTH 750 0
DWIDTH 7 0
BBX 7 7 0 -1
BITMAP
BC
80
84
04
80
DC
00
ENDCHAR
STARTCHAR U+00D4
ENCODING 212
SWIDTH 750 0
DWIDTH 7 0
BBX 7 7 0 -1
BITMAP
BC
80
84
04
80
DC
00
ENDCHAR
STARTCHAR U+00D5
ENCODING 213
SWIDTH 750 0
DWIDTH 7 0
BBX 7 7 0 -1
BITMAP
BC
80
84
04
80
DC
00
ENDCHAR
STARTCHAR U+00D6
ENCODING 214
SWIDTH 750 0
DWIDTH 7 0
BBX 7 7 0 -1
BITMAP
BC
80
84
04
80
DC
00
ENDCHAR
STARTCHAR U+00D7
ENCODING 215
SWIDTH 750 0
DWIDTH 7 0
BBX 7 7 0 -1
BITMAP
BC
80
84
04
80
DC
00
ENDCHAR
STARTCHAR U+00D8
ENCODING 216
SWIDTH 750 0
DWIDTH 7 0
BBX 7 7 0 -1
BITMAP
BC
80
84
04
80
DC
00
ENDCHAR
STARTCHAR U+00D9
ENCODING 217
SWIDTH 750 0
DWIDTH 7 0
BBX 7 7 0 -1
BITMAP
BC
80
84
04
80
DC
00
ENDCHAR
STARTCHAR U+00DA
ENCODING 218
SWIDTH 750 0
DWIDTH 7 0
BBX 7 7 0 -1
BITMAP
BC
80
84
04
80
DC
00
ENDCHAR
STARTCHAR U+00DB
ENCODING 219
SWIDTH 750 0
DWIDTH 7 0
BBX 7 7 0 -1
BITMAP
BC
80
84
04
80
DC
00
ENDCHAR
STARTCHAR U+00DC
ENCODING 220
SWIDTH 750 0
DWIDTH 7 0
BBX 7 7 0 -1
BITMAP
BC
80
84
04
80
DC
00
ENDCHAR
STARTCHAR U+00DD
ENCODING 221
SWIDTH 750 0
DWIDTH 7 0
BBX 7 7 0 -1
BITMAP
BC
80
84
04
80
DC
00
ENDCHAR
STARTCHAR U+00DE
ENCODING 222
SWIDTH 750 0
DWIDTH 7 0
BBX 7 7 0 -1
BITMAP
BC
80
84
04
80
DC
00
ENDCHAR
STARTCHAR U+00DF
ENCODING 223
SWIDTH 750 0
DWIDTH 7 0
BBX 7 7 0 -1
BITMAP
BC
80
84
04
80
DC
00
ENDCHAR
STARTCHAR U+00E0
ENCODING 224
SWIDTH 750 0
DWIDTH 7 0
BBX 7 7 0 -1
BITMAP
BC
80
84
04
80
DC
00
ENDCHAR
STARTCHAR U+00E1
ENCODING 225
SWIDTH 750 0
DWIDTH 7 0
BBX 7 7 0 -1
BITMAP
BC
80
84
04
80
DC
00
ENDCHAR
STARTCHAR U+00E2
ENCODING 226
SWIDTH 750 0
DWIDTH 7 0
BBX 7 7 0 -1
BITMAP
BC
80
84
04
80
DC
00
ENDCHAR
STARTCHAR U+00E3
ENCODING 227
SWIDTH 750 0
DWIDTH 7 0
BBX 7 7 0 -1
BITMAP
BC
80
84
04
80
DC
00
ENDCHAR
STARTCHAR U+00E4
ENCODING 228
SWIDTH 750 0
DWIDTH 7 0
BBX 7 7 0 -1
BITMAP
BC
80
84
04
80
DC
00
ENDCHAR
STARTCHAR U+00E5
ENCODING 229
SWIDTH 750 0
DWIDTH 7 0
BBX 7 7 0 -1
BITMAP
BC
80
84
04
80
DC
00
ENDCHAR
STARTCHAR U+00E6
ENCODING 230
SWIDTH 750 0
DWIDTH 7 0
BBX 7 7 0 -1
BITMAP
BC
80
84
04
80
DC
00
ENDCHAR
STARTCHAR U+00E7
ENCODING 231
SWIDTH 750 0
DWIDTH 7 0
BBX 7 7 0 -1
BITMAP
BC
80
84
04
80
DC
00
ENDCHAR
STARTCHAR U+00E8
ENCODING 232
SWIDTH 750 0
DWIDTH 7 0
BBX 7 7 0 -1
BITMAP
BC
80
84
04
80
DC
00
ENDCHAR
STARTCHAR U+00E9
ENCODING 233
SWIDTH 750 0
DWIDTH 7 0
BBX 7 7 0 -1
BITMAP
BC
80
84
04
80
DC
00
ENDCHAR
STARTCHAR U+00EA
ENCODING 234
SWIDTH 750 0
DWIDTH 7 0
BBX 7 7 0 -1
BITMAP
BC
80
84
04
80
DC
00
ENDCHAR
STARTCHAR U+00EB
ENCODING 235
SWIDTH 750 0
DWIDTH 7 0
BBX 7 7 0 -1
BITMAP
BC
80
84
04
80
DC
00
ENDCHAR
STARTCHAR U+00EC
ENCODING 236
SWIDTH 750 0
DWIDTH 7 0
BBX 7 7 0 -1
BITMAP
BC
80
84
04
80
DC
00
ENDCHAR
STARTCHAR U+00ED
ENCODING 237
SWIDTH 750 0
DWIDTH 7 0
BBX 7 7 0 -1
BITMAP
BC
80
84
04
80
DC
00
ENDCHAR
STARTCHAR U+00EE
ENCODING 238
SWIDTH 750 0
DWIDTH 7 0
BBX 7 7 0 -1
BITMAP
BC
80
84
04
80
DC
00
ENDCHAR
STARTCHAR U+00EF
ENCODING 239
SWIDTH 750 0
DWIDTH 7 0
BBX 7 7 0 -1
BITMAP
BC
80
84
04
80
DC
00
ENDCHAR
STARTCHAR U+00F0
ENCODING 240
SWIDTH 750 0
DWIDTH 7 0
BBX 7 7 0 -1
BITMAP
BC
80
84
04
80
DC
00
ENDCHAR
STARTCHAR U+00F1
ENCODING 241
SWIDTH 750 0
DWIDTH 7 0
BBX 7 7 0 -1
BITMAP
BC
80
84
04
80
DC
00
ENDCHAR
STARTCHAR U+00F2
ENCODING 242
SWIDTH 750 0
DWIDTH 7 0
BBX 7 7 0 -1
BITMAP
BC
80
84
04
80
DC
00
ENDCHAR
STARTCHAR U+00F3
ENCODING 243
SWIDTH 750 0
DWIDTH 7 0
BBX 7 7 0 -1
BITMAP
BC
80
84
04
80
DC
00
ENDCHAR
STARTCHAR U+00F4
ENCODING 244
SWIDTH 750 0
DWIDTH 7 0
BBX 7 7 0 -1
BITMAP
BC
80
84
04
80
DC
00
ENDCHAR
STARTCHAR U+00F5
ENCODING 245
SWIDTH 750 0
DWIDTH 7 0
BBX 7 7 0 -1
BITMAP
BC
80
84
04
80
DC
00
ENDCHAR
STARTCHAR U+00F6
ENCODING 246
SWIDTH 750 0
DWIDTH 7 0
BBX 7 7 0 -1
BITMAP
BC
80
84
04
80
DC
00
ENDCHAR
STARTCHAR U+00F7
ENCODING 247
SWIDTH 750 0
DWIDTH 7 0
BBX 7 7 0 -1
BITMAP
BC
80
84
04
80
DC
00
ENDCHAR
STARTCHAR U+00F8
ENCODING 248
SWIDTH 750 0
DWIDTH 7 0
BBX 7 7 0 -1
BITMAP
BC
80
84
04
80
DC
00
ENDCHAR
STARTCHAR U+00F9
ENCODING 249
SWIDTH 750 0
DWIDTH 7 0
BBX 7 7 0 -1
BITMAP
BC
80
84
04
80
DC
00
ENDCHAR
STARTCHAR U+00FA
ENCODING 250
SWIDTH 750 0
DWIDTH 7 0
BBX 7 7 0 -1
BITMAP
BC
80
84
04
80
DC
00
ENDCHAR
STARTCHAR U+00FB
ENCODING 251
SWIDTH 750 0
DWIDTH 7 0
BBX 7 7 0 -1
BITMAP
BC
80
84
04
80
DC
00
ENDCHAR
STARTCHAR U+00FC
ENCODING 252
SWIDTH 750 0
DWIDTH 7 0
BBX 7 7 0 -1
BITMAP
BC
80
84
04
80
DC
00
ENDCHAR
STARTCHAR U+00FD
ENCODING 253
SWIDTH 750 0
DWIDTH 7 0
BBX 7 7 0 -1
BITMAP
BC
80
84
04
80
DC
00
ENDCHAR
STARTCHAR U+00FE
ENCODING 254
SWIDTH 750 0
DWIDTH 7 0
BBX 7 7 0 -1
BITMAP
BC
80
84
04
80
DC
00
ENDCHAR
STARTCHAR U+00FF
ENCODING 255
SWIDTH 750 0
DWIDTH 7 0
BBX 7 7 0 -1
BITMAP
BC
80
84
04
80
DC
00
ENDCHAR
ENDFONT
